HIERARCHY
ROOT Hips
{
	OFFSET 0.000000 88.474243 0.000000
	CHANNELS 6 Xposition Yposition Zposition Zrotation Yrotation Xrotation 
	JOINT Hips_Spine
	{
		OFFSET 0.000000 0.000000 0.000000
		CHANNELS 3 Zrotation Yrotation Xrotation
		JOINT Spine
		{
			OFFSET 0.005100 8.711998 -0.691000
			CHANNELS 3 Zrotation Yrotation Xrotation
			JOINT Spine1
			{
				OFFSET -0.009200 8.660301 -1.275000
				CHANNELS 3 Zrotation Yrotation Xrotation
				JOINT Spine2
				{
					OFFSET 0.006300 9.852501 -1.857000
					CHANNELS 3 Zrotation Yrotation Xrotation
					JOINT Spine2_Neck
					{
						OFFSET 0.000000 0.000000 0.000000
						CHANNELS 3 Zrotation Yrotation Xrotation
						JOINT Neck
						{
							OFFSET 0.016300 11.420799 -0.263300
							CHANNELS 3 Zrotation Yrotation Xrotation
							End Site #name: Head
							{
								OFFSET -0.019200 9.262405 2.362500
							}
						}
					}
					JOINT Spine2_LeftShoulder
					{
						OFFSET 0.000000 0.000000 0.000000
						CHANNELS 3 Zrotation Yrotation Xrotation
						JOINT LeftShoulder
						{
							OFFSET 5.616900 6.732201 -0.345700
							CHANNELS 3 Zrotation Yrotation Xrotation
							JOINT LeftArm
							{
								OFFSET 10.664888 -0.183372 -2.440700
								CHANNELS 3 Zrotation Yrotation Xrotation
								JOINT LeftForeArm
								{
									OFFSET 27.459126 0.000000 0.000000
									CHANNELS 3 Zrotation Yrotation Xrotation
									End Site #name: LeftHand
									{
										OFFSET 21.306858 0.000000 0.000000
									}
								}
							}
						}
					}
					JOINT Spine2_RightShoulder
					{
						OFFSET 0.000000 0.000000 0.000000
						CHANNELS 3 Zrotation Yrotation Xrotation
						JOINT RightShoulder
						{
							OFFSET -5.580300 6.737503 -0.344400
							CHANNELS 3 Zrotation Yrotation Xrotation
							JOINT RightArm
							{
								OFFSET -10.679335 -0.188484 -2.383900
								CHANNELS 3 Zrotation Yrotation Xrotation
								JOINT RightForeArm
								{
									OFFSET -27.503529 0.000000 0.000000
									CHANNELS 3 Zrotation Yrotation Xrotation
									End Site #name: RightHand
									{
										OFFSET -21.306808 0.000000 0.000000
									}
								}
							}
						}
					}
				}
			}
		}
	}
	JOINT Hips_LeftUpLeg
	{
		OFFSET 0.000000 0.000000 0.000000
		CHANNELS 3 Zrotation Yrotation Xrotation
		JOINT LeftUpLeg
		{
			OFFSET 6.857700 -6.739601 0.312100
			CHANNELS 3 Zrotation Yrotation Xrotation
			JOINT LeftLeg
			{
				OFFSET -0.367590 -34.731552 -4.572400
				CHANNELS 3 Zrotation Yrotation Xrotation
				End Site #name: LeftFoot
				{
					OFFSET 0.367590 -34.656704 -6.067400
				}
			}
		}
	}
	JOINT Hips_RightUpLeg
	{
		OFFSET 0.000000 0.000000 0.000000
		CHANNELS 3 Zrotation Yrotation Xrotation
		JOINT RightUpLeg
		{
			OFFSET -6.876100 -6.733299 0.301000
			CHANNELS 3 Zrotation Yrotation Xrotation
			JOINT RightLeg
			{
				OFFSET 0.347353 -34.795158 -4.515900
				CHANNELS 3 Zrotation Yrotation Xrotation
				End Site #name: RightFoot
				{
					OFFSET -0.347353 -34.589367 -6.070300
				}
			}
		}
	}
}
MOTION
Frames: 6
Frame Time: 0.041667
0.132726 0.051913 0.016030 -0.399159 26.391559 -7.098377 0.000000 0.000000 0.000000 -1.378254 -1.588472 1.225687 -0.608202 -1.441789 1.039109 0.000000 0.000000 0.000000 -0.740091 -0.873873 -0.489389 3.931693 -0.010815 -6.421858 0.020885 -1.877164 -1.494982 -17.162115 -8.345040 1.866218 -45.587849 0.424630 13.973815 0.928872 -23.797152 5.804613 -0.789017 -0.835861 1.013888 14.637936 10.452193 4.143152 57.974409 -3.696929 -5.349711 -0.284763 49.336640 0.989907 0.000000 0.000000 0.000000 -7.080072 15.700562 -4.737239 -0.414812 0.630750 20.750121 0.000000 0.000000 0.000000 -1.766584 12.930830 -6.214290 5.870419 -0.524658 -6.112671 
0.708440 -0.050760 0.282644 0.677304 30.592826 -7.865928 -0.000000 0.000000 0.000000 -4.211746 -2.844804 1.098521 -0.323680 -1.281036 0.644385 0.000000 0.000000 0.000000 -0.964816 -0.996207 -1.223251 5.488834 -0.916746 -6.759623 -0.799317 -1.548394 -1.939476 -22.127990 -3.557223 0.235818 -41.437045 0.545417 7.211849 -0.002380 -20.060264 3.021327 -0.902302 -1.093878 0.137918 15.361614 7.613898 1.945530 60.215642 -0.603353 -5.231878 -0.172832 46.454261 -0.504684 0.000000 0.000000 -0.000000 -8.673105 14.056269 -2.989827 -0.295492 3.622258 19.293532 0.000000 0.000000 0.000000 -5.003635 13.963550 -5.446074 6.101430 -0.630752 -5.114712 
1.072154 -0.129681 0.438955 1.648057 30.533819 -8.000080 -0.000000 0.000000 0.000000 -5.425057 -4.245250 1.887797 -0.283300 -0.905147 0.212213 0.000000 0.000000 0.000000 -0.493511 -1.267726 -1.417938 5.252458 -0.935253 -7.681174 -0.994804 -1.469063 -2.017838 -25.733230 -3.081150 1.025110 -42.724201 7.850059 2.008611 -0.689282 -22.218865 3.440097 -0.699313 -1.113326 -0.069762 14.636181 6.616855 2.067786 59.675556 1.946864 -4.583837 0.041228 40.361174 -0.479133 0.000000 0.000000 -0.000000 -9.817202 13.567969 -1.675659 -0.814159 3.933340 18.176227 0.000000 0.000000 0.000000 -6.637723 14.502480 -7.003170 5.989295 -2.577454 -1.205455 
1.409915 -0.220953 0.523257 2.041127 29.956265 -7.863750 -0.000000 0.000000 0.000000 -5.301337 -4.130089 2.794920 -0.212624 -0.948199 0.110127 0.000000 0.000000 0.000000 -0.190230 -1.352445 -1.323748 4.798801 -1.463428 -6.442120 -0.839559 -1.498657 -1.886905 -26.896296 -3.127655 1.945292 -41.967537 8.098793 3.172548 -0.280763 -23.330925 5.593332 -0.469150 -1.050230 0.022454 13.889631 6.654109 1.993820 59.469216 5.393730 -3.542049 0.185730 42.088099 -0.418684 0.000000 0.000000 -0.000000 -10.374235 13.546405 -1.679763 -0.969796 4.245843 18.037498 0.000000 0.000000 0.000000 -7.660275 14.071976 -9.471547 5.357033 -3.218339 4.488266 
1.755029 -0.267603 0.590647 2.174417 30.017407 -7.529656 -0.000000 0.000000 -0.000000 -5.231234 -3.631363 2.722409 -0.262596 -0.921179 0.203887 0.000000 0.000000 0.000000 -0.203608 -1.324504 -1.229465 4.509125 -2.082340 -5.370503 -0.751111 -1.506701 -1.691190 -28.561211 -2.377695 2.641346 -39.856597 6.734852 3.800927 0.494610 -20.260015 7.914172 -0.390436 -0.959645 0.171937 13.336958 6.660972 1.953228 59.991801 6.917615 -3.647488 0.197234 43.535158 -0.524756 0.000000 0.000000 -0.000000 -10.772556 13.586383 -2.059014 -0.859470 4.359869 18.004213 0.000000 0.000000 0.000000 -8.489314 13.712298 -11.123172 5.060090 -2.720169 8.324993 
2.113348 -0.278982 0.651441 2.155524 30.721525 -7.258775 -0.000000 0.000000 -0.000000 -5.275750 -3.239615 2.108811 -0.393745 -0.879907 0.318793 0.000000 0.000000 0.000000 -0.414166 -1.303232 -1.100362 4.225954 -2.417284 -4.592456 -0.809260 -1.499413 -1.602825 -30.099323 -1.828529 3.106415 -38.179157 5.378743 4.707958 1.095253 -16.115464 9.328143 -0.486619 -0.893479 0.254561 12.564399 6.711648 1.874120 60.700634 7.236558 -4.487437 0.252109 43.666026 -0.589576 0.000000 0.000000 -0.000000 -11.094663 13.672500 -2.480999 -0.653679 4.360366 18.085809 0.000000 0.000000 0.000000 -9.047546 13.439871 -11.866672 5.118327 -0.993860 10.586070 
